<svg version="1.2" xmlns="http://www.w3.org/2000/svg" viewBox="0 0 512 512" width="512" height="512">
	<title>logo-android-svg</title>
	<style>
		.s0 { fill: #78c257 } 
	</style>
	<path id="Layer" fill-rule="evenodd" class="s0" d="m512 399.6l-512-0.1c8.2-86.7 57.8-160.9 131-200.5l-42.4-73.6c-1.1-1.9-1.4-4.3-0.8-6.5 0.5-2.2 2-4.1 4-5.2 1.9-1.2 4.3-1.5 6.5-0.9 2.2 0.6 4.1 2 5.2 4l43 74.5c32.8-15 69.8-23.3 109.5-23.3 39.8 0 76.7 8.3 109.6 23.3l42.9-74.5c0.6-1 1.4-1.8 2.3-2.5 0.8-0.7 1.9-1.2 3-1.5 1-0.3 2.2-0.4 3.3-0.2 1.1 0.1 2.2 0.5 3.2 1.1 0.9 0.5 1.8 1.3 2.5 2.2 0.7 0.9 1.2 1.9 1.4 3 0.3 1.1 0.4 2.2 0.3 3.4-0.2 1.1-0.6 2.2-1.1 3.1l-42.5 73.6c73.3 39.6 122.9 113.8 131.1 200.5zm-365.3-73.5c2.6-1.1 4.9-2.6 6.9-4.6 2-2 3.6-4.4 4.7-7 1.1-2.6 1.6-5.4 1.6-8.2 0-8.7-5.2-16.5-13.2-19.8-8.1-3.4-17.3-1.5-23.4 4.6-6.2 6.2-8 15.4-4.7 23.4 3.3 8 11.2 13.2 19.9 13.2 2.8 0 5.6-0.5 8.2-1.6zm226.8 1.6c2.8 0.1 5.6-0.5 8.2-1.6 2.6-1 5-2.6 7-4.6 2-2 3.6-4.4 4.7-7 1-2.6 1.6-5.4 1.6-8.2 0-8.7-5.2-16.5-13.2-19.8-8-3.4-17.3-1.5-23.4 4.6-6.1 6.1-8 15.3-4.7 23.3 3.3 8.1 11.1 13.3 19.8 13.3z"/>
</svg>