<svg version="1.2" xmlns="http://www.w3.org/2000/svg" viewBox="0 0 512 512" width="512" height="512">
	<title>logo-apple-svg</title>
	<style>
		.s0 { fill: #a2aaad } 
	</style>
	<path id="Layer" class="s0" d="m349.1 136.9c-40.3 0-57.3 19.2-85.4 19.2-28.8 0-50.8-19.1-85.7-19.1-34.2 0-70.7 20.9-93.8 56.4-32.6 50.2-27 144.7 25.6 225.2 18.9 28.8 44 61.1 77 61.4h0.6c28.7 0 37.2-18.7 76.7-19h0.6c38.9 0 46.7 18.9 75.3 18.9h0.6c33-0.3 59.5-36.1 78.3-64.8 13.6-20.7 18.6-31 29-54.4-76.2-28.9-88.4-136.9-13.1-178.3-23-28.8-55.3-45.5-85.8-45.5z"/>
	<path id="Layer" class="s0" d="m340.3 32c-24.1 1.6-52.1 16.9-68.4 36.9-14.9 18-27.2 44.9-22.4 70.9h2c25.5 0 51.7-15.4 67-35.1 14.7-18.8 25.8-45.4 21.7-72.7z"/>
</svg>