<svg class="svg-icon" style="width: 1em; height: 1em;vertical-align: middle;fill: currentColor;overflow: hidden;" viewBox="0 0 1024 1024" version="1.1" xmlns="http://www.w3.org/2000/svg"><path d="M263.2 710.5c13.8 0 25-11.2 25-25s-11.2-25-25-25c-82.6 0-149.8-67.2-149.8-149.8 0-82.6 67.2-149.8 149.8-149.8h0.1c14.9 0 27.2-12 27.5-26.9 1.2-58.1 24.8-112.6 66.3-153.3 41.6-40.8 96.6-63.3 154.9-63.3h0.4c58.3 0 113.3 22.5 154.9 63.3 41.5 40.7 65.1 95.2 66.3 153.3 0.3 14.9 12.6 26.9 27.5 26.9h0.1c82.6 0 149.8 67.2 149.8 149.8 0 82.6-67.2 149.8-149.8 149.8-13.8 0-25 11.2-25 25s11.2 25 25 25c110.2 0 199.8-89.6 199.8-199.8 0-103-78.3-188.1-178.6-198.7-6.2-63.3-34.1-122-80.1-167.1-51-50-118.5-77.6-189.9-77.6h-0.4c-71.5 0-138.9 27.6-189.9 77.6-46 45.1-74 103.8-80.1 167.1-100.2 10.6-178.6 95.7-178.6 198.7 0 110.2 89.7 199.8 199.8 199.8z" fill="purple" /><path d="M517.1 226c-49 0-88.9 39.9-88.9 88.9 0 40.4 27 74.5 63.9 85.4v371.1c-21.3 9.2-36.2 30.4-36.2 55.1 0 33.1 26.9 60 60 60s60-26.9 60-60c0-23.7-13.8-44.3-33.8-54V400.3c36.9-10.8 63.9-45 63.9-85.4 0-49-39.9-88.9-88.9-88.9z m0 127.9c-21.5 0-38.9-17.5-38.9-38.9s17.5-38.9 38.9-38.9S556 293.6 556 315s-17.5 38.9-38.9 38.9zM351.5 382.7c-33.1 0-60 26.9-60 60 0 25.9 16.4 48 39.5 56.4v308c0 18.9-15.4 34.4-34.4 34.4H259c-10.8-36.9-45-63.9-85.4-63.9-49 0-88.9 39.9-88.9 88.9s39.9 88.9 88.9 88.9c40.4 0 74.5-27 85.4-63.9h37.6c46.5 0 84.4-37.8 84.4-84.4V494.9c18.2-10.3 30.5-29.8 30.5-52.3 0-33.1-26.9-59.9-60-59.9zM173.6 905.4c-21.5 0-38.9-17.5-38.9-38.9s17.5-38.9 38.9-38.9 38.9 17.5 38.9 38.9-17.4 38.9-38.9 38.9zM853.5 777.5c-40.4 0-74.5 27-85.4 63.9h-37.6c-18.9 0-34.4-15.4-34.4-34.4V497.9c21.4-9.2 36.5-30.4 36.5-55.2 0-33.1-26.9-60-60-60s-60 26.9-60 60c0 23.6 13.7 44.1 33.5 53.9v310.5c0 46.5 37.8 84.4 84.4 84.4h37.6c10.8 36.9 45 63.9 85.4 63.9 49 0 88.9-39.9 88.9-88.9s-39.8-89-88.9-89z m0 127.9c-21.5 0-38.9-17.5-38.9-38.9s17.5-38.9 38.9-38.9 38.9 17.5 38.9 38.9-17.4 38.9-38.9 38.9z" fill="purple" /></svg>