<svg version="1.2" xmlns="http://www.w3.org/2000/svg" viewBox="0 0 512 512" width="512" height="512">
	<title>linux-svg</title>
	<style>
		.s0 { fill: #1793d1 } 
	</style>
	<path id="Layer" class="s0" d="m186.6 162.2c18.1 15.3 47.4 31.2 72.8 41.2-21.8-15.9-43.6-33.8-65.3-57.2 18.1-38.5 39.6-91.8 61.9-146.1 36.3 92.7 103.9 232.2 194.5 397.7-24.6-13.5-46.9-21.2-69.9-27.1 7.6 4.3 25.6 14.2 37.2 22.1 18.3 12.5 35.2 26.1 51.1 39.2 14.2 26.1 28.6 52.8 43.1 79.9-72.3-41.8-142.5-75.7-200-86.2 18.8-104.5-54.9-166.1-96.8-99.6-16.1 25.6-20.4 67.8-12.8 99.1-72.7 14-143.9 53.2-202.4 86.7 68.1-123.5 137-248.6 186.6-349.7z"/>
</svg>