<svg version="1.2" xmlns="http://www.w3.org/2000/svg" viewBox="0 0 512 512" width="512" height="512">
	<title>logo-playstation-svg</title>
	<style>
		.s0 { fill: #0070d1 } 
	</style>
	<path id="Layer" class="s0" d="m399.8 203c-0.8-17.1-3.3-34.5-10.8-50.1q-1.6-3.2-3.4-6.3-1.8-3.1-3.9-6-2-2.9-4.4-5.7-2.3-2.7-4.8-5.2-2.4-2.4-5-4.6-2.5-2.2-5.2-4.2-2.6-2.1-5.4-3.9-2.8-1.9-5.7-3.6c-17.1-10.2-37.5-17-84.4-31-46.9-14-74.8-18.4-74.8-18.4v358.3l79.9 25.7c0 0 0.1-198.8 0.1-299.5v-3.8c0-9.3 7.5-16.8 16.1-16.8h0.5c8.5 0 15.5 7.5 15.5 16.8v133.3c11 5.3 29.2 9.3 41.8 9.1q3.1 0.1 6.2-0.2 3.1-0.4 6.2-1.1 3-0.7 5.9-1.8 3-1.1 5.7-2.6 2.8-1.6 5.4-3.5 2.6-1.9 5-4.2 2.3-2.2 4.3-4.8 2-2.5 3.7-5.3 1.9-3.1 3.4-6.5 1.6-3.3 2.8-6.7 1.3-3.4 2.2-7 0.9-3.5 1.5-7.1c1.9-10.8 2-22.1 1.6-33.3zm-313.1 154.8c27.4-9.8 89.3-29.5 89.3-29.5v-47.2c0 0-76.5 24.8-111.3 37.1-8.6 3.1-17.3 5.9-25.7 9.5-9.8 4.1-19.4 8.7-28.1 14.8q-1.5 0.9-2.8 2-1.3 1.2-2.5 2.4-1.2 1.3-2.1 2.7-1 1.5-1.8 3-0.8 1.6-1.2 3.3-0.4 1.7-0.5 3.4 0 1.8 0.3 3.5 0.2 1.8 0.9 3.4c2 5.1 5.8 9.3 10.1 12.6 7.8 5.9 17.1 9.5 26.4 12.2q10.6 3.5 21.6 6.2 10.9 2.6 22 4.2 11.1 1.7 22.3 2.4 11.2 0.7 22.5 0.5c14.5-0.2 36-1.9 50-4.4v-42c0 0-11 2.5-41.3 12.5-4.6 1.5-9.2 3.3-14 4.3q-2.7 0.6-5.4 1-2.7 0.4-5.4 0.7-2.7 0.2-5.4 0.4-2.7 0.1-5.4 0.1c-6.5-0.3-13.2-0.7-19.3-3.1-2.2-1-4.6-2.2-5.5-4.6-0.8-2 0.3-4 1.7-5.4 2.8-2.9 6.8-4.5 10.6-6z"/>
	<path id="Layer" class="s0" d="m512 345.9c-0.1-6-3.7-11.2-7.9-15-7.1-6.3-15.9-10.3-24.7-13.5-5.5-1.9-9.3-3.3-14.7-5-25.2-8.2-51.9-11.2-78.3-11.3-8 0.3-23.1 0.5-31 1.4-21.9 2.5-67.3 15.4-67.3 15.4v48.8c0 0 67.5-21.6 96.5-31.8q3.7-1.2 7.4-2.1 3.8-0.9 7.6-1.4 3.8-0.6 7.6-0.9 3.9-0.2 7.7-0.2c6.5 0.2 13.2 0.7 19.4 3.1 2.2 0.9 4.5 2.2 5.5 4.5 0.9 2.6-0.9 5-2.9 6.5-4.7 3.8-10.7 5.3-16.2 7.4-41 14.5-132.7 44.7-132.7 44.7v47c0 0 117.2-39.6 170.8-58.8 8.9-3.3 17.9-6.1 26.4-10.4 7.9-4 15.8-8.6 21.8-15.3q1.2-1.3 2.1-2.9 1-1.5 1.6-3.2 0.6-1.7 1-3.4 0.3-1.8 0.3-3.6z"/>
</svg>