<svg version="1.2" xmlns="http://www.w3.org/2000/svg" viewBox="0 0 512 512" width="512" height="512">
	<title>server-sharp-svg</title>
	<style>
		.s0 { fill: #e50071 } 
	</style>
	<path id="Layer" class="s0" d="m409.4 389.9c-47.4 20.1-104 31.2-153.4 31.2-49.4 0-105.9-11.3-153.4-31.2-47.6-19.9-54.6-36.7-54.6-36.7v38.2c0 31.1 18 43.6 67.3 64.3 37.8 15.9 87.9 24.3 140.7 24.3 52.8 0 102.9-8.4 140.7-24.3 49.3-20.7 67.3-33.2 67.3-64.3v-38.2c0 0-7.1 16.6-54.6 36.7z"/>
	<path id="Layer" class="s0" d="m63.7 173.2c11.2 9.9 27.8 19.5 48 27.9 42.5 17.8 96.4 28.4 144.4 28.4 47.9 0 101.8-10.6 144.3-28.4 20.1-8.4 36.7-18 48-27.9 6-5.3 10.8-10.1 13.4-12.8q0.6-0.6 1-1.2 0.4-0.7 0.7-1.4 0.3-0.7 0.4-1.5 0.2-0.7 0.2-1.5v-26-0.1c-0.9-28.8-24.8-54.4-67.3-72.2-38-15.8-88-24.5-140.8-24.5-52.8 0-102.8 8.7-140.7 24.5-42.5 17.7-66.3 43.3-67.3 72v26.3q0 0.8 0.2 1.5 0.1 0.8 0.4 1.5 0.3 0.7 0.7 1.4 0.4 0.6 1 1.2c2.5 2.7 7.3 7.5 13.4 12.8z"/>
	<path id="Layer" class="s0" d="m409.4 221.9c-44.4 19.1-104 31.2-153.4 31.2-49.4 0-108.9-12.3-153.4-31.2-44.6-18.9-54.6-36.7-54.6-36.7v47.4c0.1 7.5 5.5 16.2 15.7 25.1 11.2 9.8 27.8 19.5 48 27.9 42.4 17.8 96.4 28.4 144.3 28.4 47.9 0 101.9-10.6 144.4-28.4 20.1-8.4 36.7-18 47.9-27.9 10.3-9 15.7-17.7 15.7-25.3v-47.2c0 0-10.1 17.6-54.6 36.7z"/>
	<path id="Layer" class="s0" d="m409.4 306.4c-47.4 19.6-104 31.2-153.4 31.2-49.4 0-109.9-12.8-153.4-31.2-43.6-18.4-54.6-36.7-54.6-36.7v46.2c0 7.6 5.4 16.3 15.7 25.3 11.2 9.8 27.8 19.5 48 27.9 42.5 17.8 96.4 28.4 144.4 28.4 47.9 0 101.8-10.6 144.3-28.4 20.1-8.4 36.7-18.1 48-27.9 10.2-8.9 15.6-17.6 15.7-25.1v-46.4c0 0-7.2 17.1-54.7 36.7z"/>
</svg>