<svg version="1.2" xmlns="http://www.w3.org/2000/svg" viewBox="0 0 512 512" width="512" height="512">
	<title>logo-xbox-svg</title>
	<style>
		.s0 { fill: #107c11 } 
	</style>
	<path id="Layer" class="s0" d="m126.8 248.3c39.7-58.6 77.9-92.8 77.9-92.8 0 0-42.1-48.9-92.8-67.4l-3.3-0.8c-21.1 18.5-38.6 40.8-51.5 65.7-12.9 24.9-21 52.1-23.9 80-2.9 27.9-0.5 56.1 7 83.2 7.6 27 20.1 52.4 37 74.8 0-4.4 0.6-70.3 49.6-142.7z"/>
	<path id="Layer" class="s0" d="m480 256c0-15.9-1.7-31.8-5-47.4-3.4-15.6-8.4-30.7-15-45.3-6.6-14.5-14.7-28.2-24.2-41-9.5-12.8-20.4-24.5-32.4-35l-3.2 0.9c-50.7 18.5-92.9 67.4-92.9 67.4 0 0 38.2 34.2 77.9 92.8 49 72.4 49.6 138.3 49.5 142.7 7.3-9.6 13.8-19.8 19.5-30.5 5.6-10.7 10.4-21.9 14.2-33.3 3.9-11.5 6.8-23.3 8.7-35.2 2-11.9 2.9-24 2.9-36.1z"/>
	<path id="Layer" class="s0" d="m201.2 80.9c29.3 13.1 54.6 34.6 54.6 34.6 0 0 25.5-21.4 54.8-34.6 36.8-16.5 64.9-11.3 72.3-9.5-18.6-12.8-38.9-22.6-60.5-29.3-21.5-6.7-43.9-10.1-66.4-10.1-22.5 0-44.9 3.4-66.4 10.1-21.6 6.7-41.9 16.5-60.5 29.3 7.2-1.8 35.2-7.1 72.1 9.5z"/>
	<path id="Layer" class="s0" d="m358.7 292.9c-46.3-56.9-102.9-93.9-102.9-93.9 0 0-56.3 37-102.7 93.9-39.8 48.9-54.6 84.8-62.6 107.8l-1.3 4.8c21 23.4 46.7 42.2 75.5 55 28.7 12.9 59.8 19.5 91.3 19.5 31.5 0 62.6-6.6 91.3-19.5 28.8-12.8 54.5-31.6 75.5-55l-1.4-4.8c-8-23-22.9-58.9-62.7-107.8z"/>
</svg>